<svg xmlns="http://www.w3.org/2000/svg" xmlns:xlink="http://www.w3.org/1999/xlink" width="500" height="337" contentScriptType="application/ecmascript" contentStyleType="text/css" preserveAspectRatio="none" style="width:500px;height:337px" version="1.1" viewBox="0 0 500 337" zoomAndPan="magnify"><g><rect width="454" height="156.484" x="10" fill="#DDD" style="stroke:#000;stroke-width:2" y="72.02"/><path fill="none" d="M144,73.0205 L144,81.3174 L134,91.3174 L10,91.3174" style="stroke:#000;stroke-width:2"/><text x="13" y="86.016" fill="#000" font-family="sans-serif" font-size="14" font-style="italic" lengthAdjust="spacingAndGlyphs" textLength="124">Debug builds only</text><polygon fill="#F8F8F8" points="32 111.317 125 111.317 137 130.524 125 149.731 32 149.731 20 130.524 32 111.317" style="stroke:#383838;stroke-width:1.5"/><text x="82.5" y="159.942" fill="#000" font-family="sans-serif" font-size="11" lengthAdjust="spacingAndGlyphs" textLength="21">Yes</text><text x="32" y="134.333" fill="#000" font-family="sans-serif" font-size="11" lengthAdjust="spacingAndGlyphs" textLength="93">Mocks installed?</text><rect width="116" height="33.969" x="20.5" y="182.536" fill="#F8F8F8" rx="12.5" ry="12.5" style="stroke:#383838;stroke-width:1.5"/><text x="30.5" y="203.675" fill="#000" font-family="sans-serif" font-size="12" font-weight="bold" lengthAdjust="spacingAndGlyphs" textLength="96">Return mocks</text><polygon fill="#F8F8F8" points="169 111.317 262 111.317 274 130.524 262 149.731 169 149.731 157 130.524 169 111.317" style="stroke:#383838;stroke-width:1.5"/><text x="219.5" y="159.942" fill="#000" font-family="sans-serif" font-size="11" lengthAdjust="spacingAndGlyphs" textLength="21">Yes</text><text x="169" y="134.333" fill="#000" font-family="sans-serif" font-size="11" lengthAdjust="spacingAndGlyphs" textLength="93">Mocks required?</text><rect width="55" height="33.969" x="188" y="182.536" fill="#BCBCBC" rx="12.5" ry="12.5" style="stroke:#383838;stroke-width:1.5"/><text x="198" y="203.675" fill="#000" font-family="sans-serif" font-size="12" lengthAdjust="spacingAndGlyphs" textLength="35">throw</text><polygon fill="#F8F8F8" points="306 111.317 440 111.317 452 130.524 440 149.731 306 149.731 294 130.524 306 111.317" style="stroke:#383838;stroke-width:1.5"/><text x="377" y="159.942" fill="#000" font-family="sans-serif" font-size="11" lengthAdjust="spacingAndGlyphs" textLength="15">No</text><text x="306" y="134.333" fill="#000" font-family="sans-serif" font-size="11" lengthAdjust="spacingAndGlyphs" textLength="134">Native libraries loaded?</text><rect width="55" height="33.969" x="345.5" y="182.536" fill="#BCBCBC" rx="12.5" ry="12.5" style="stroke:#383838;stroke-width:1.5"/><text x="355.5" y="203.675" fill="#000" font-family="sans-serif" font-size="12" lengthAdjust="spacingAndGlyphs" textLength="35">throw</text><polygon fill="#F8F8F8" points="212.5 11.094 309.5 11.094 321.5 30.301 309.5 49.508 212.5 49.508 200.5 30.301 212.5 11.094" style="stroke:#383838;stroke-width:1.5"/><text x="265" y="59.719" fill="#000" font-family="sans-serif" font-size="11" lengthAdjust="spacingAndGlyphs" textLength="21">Yes</text><text x="212.5" y="34.109" fill="#000" font-family="sans-serif" font-size="11" lengthAdjust="spacingAndGlyphs" textLength="97">Testing enabled?</text><polygon fill="#F8F8F8" points="261 248.505 273 260.505 261 272.505 249 260.505 261 248.505" style="stroke:#383838;stroke-width:1.5"/><rect width="161" height="33.969" x="180.5" y="292.505" fill="#F8F8F8" rx="12.5" ry="12.5" style="stroke:#383838;stroke-width:1.5"/><text x="190.5" y="313.644" fill="#000" font-family="sans-serif" font-size="12" font-weight="bold" lengthAdjust="spacingAndGlyphs" textLength="141">Return live instance</text><line style="stroke:#383838;stroke-width:1.5" x1="78.5" x2="78.5" y1="149.731" y2="182.536"/><polygon fill="#383838" points="74.5 172.536 78.5 182.536 82.5 172.536 78.5 176.536" style="stroke:#383838;stroke-width:1"/><line style="stroke:#383838;stroke-width:1.5" x1="215.5" x2="215.5" y1="149.731" y2="182.536"/><polygon fill="#383838" points="211.5 172.536 215.5 182.536 219.5 172.536 215.5 176.536" style="stroke:#383838;stroke-width:1"/><line style="stroke:#383838;stroke-width:1.5" x1="373" x2="373" y1="149.731" y2="182.536"/><polygon fill="#383838" points="369 172.536 373 182.536 377 172.536 373 176.536" style="stroke:#383838;stroke-width:1"/><line style="stroke:#383838;stroke-width:1.5" x1="137" x2="157" y1="130.524" y2="130.524"/><polygon fill="#383838" points="147 126.524 157 130.524 147 134.524 151 130.524" style="stroke:#383838;stroke-width:1"/><line style="stroke:#383838;stroke-width:1.5" x1="274" x2="294" y1="130.524" y2="130.524"/><polygon fill="#383838" points="284 126.524 294 130.524 284 134.524 288 130.524" style="stroke:#383838;stroke-width:1"/><line style="stroke:#000;stroke-width:1.5;stroke-dasharray:1,3" x1="261" x2="261" y1="49.508" y2="96.317"/><line style="stroke:#000;stroke-width:1.5;stroke-dasharray:1,3" x1="261" x2="78.5" y1="96.317" y2="96.317"/><line style="stroke:#000;stroke-width:1.5;stroke-dasharray:1,3" x1="78.5" x2="78.5" y1="96.317" y2="111.317"/><polygon fill="#000" points="74.5 101.317 78.5 111.317 82.5 101.317 78.5 105.317" style="stroke:#000;stroke-width:1"/><line style="stroke:#383838;stroke-width:1.5" x1="452" x2="457" y1="130.524" y2="130.524"/><line style="stroke:#383838;stroke-width:1.5" x1="457" x2="457" y1="130.524" y2="221.505"/><line style="stroke:#383838;stroke-width:1.5" x1="457" x2="261" y1="221.505" y2="221.505"/><line style="stroke:#383838;stroke-width:1.5" x1="261" x2="261" y1="221.505" y2="248.505"/><polygon fill="#383838" points="257 238.505 261 248.505 265 238.505 261 242.505" style="stroke:#383838;stroke-width:1"/><line style="stroke:#383838;stroke-width:1.5" x1="321.5" x2="474" y1="30.301" y2="30.301"/><polygon fill="#383838" points="470 167.159 474 177.159 478 167.159 474 171.159" style="stroke:#383838;stroke-width:1.5"/><line style="stroke:#383838;stroke-width:1.5" x1="474" x2="474" y1="30.301" y2="260.505"/><line style="stroke:#383838;stroke-width:1.5" x1="474" x2="273" y1="260.505" y2="260.505"/><polygon fill="#383838" points="283 256.505 273 260.505 283 264.505 279 260.505" style="stroke:#383838;stroke-width:1"/><line style="stroke:#383838;stroke-width:1.5" x1="261" x2="261" y1="272.505" y2="292.505"/><polygon fill="#383838" points="257 282.505 261 292.505 265 282.505 261 286.505" style="stroke:#383838;stroke-width:1"/></g></svg>